<svg xmlns="http://www.w3.org/2000/svg" version="1.1" xmlns:xlink="http://www.w3.org/1999/xlink" xmlns:svgjs="http://svgjs.dev/svgjs" width="1440" height="560" preserveAspectRatio="none" viewBox="0 0 1440 560"><g mask="url(&quot;#SvgjsMask1041&quot;)" fill="none"><rect width="1440" height="560" x="0" y="0" fill="url(&quot;#SvgjsLinearGradient1042&quot;)"></rect><path d="M-70.06 395.69L-70.06 395.69" stroke="#132e65" stroke-width="1.5"></path><path d="M-70.06 395.69L43.35 370.21" stroke="#132e65" stroke-width="1.5"></path><path d="M-70.06 395.69L-49.68 522.78" stroke="#132e65" stroke-width="1.5"></path><path d="M-70.06 395.69L57.98 488.03" stroke="#132e65" stroke-width="1.5"></path><path d="M-49.68 522.78L-49.68 522.78" stroke="#132e65" stroke-width="1.5"></path><path d="M-49.68 522.78L57.98 488.03" stroke="#132e65" stroke-width="1.5"></path><path d="M-49.68 522.78L-62.6 663.5" stroke="#132e65" stroke-width="1.5"></path><path d="M-49.68 522.78L43.35 370.21" stroke="#132e65" stroke-width="1.5"></path><path d="M-62.6 663.5L-62.6 663.5" stroke="#132e65" stroke-width="1.5"></path><path d="M-62.6 663.5L64.21 688.77" stroke="#132e65" stroke-width="1.5"></path><path d="M-62.6 663.5L57.98 488.03" stroke="#132e65" stroke-width="1.5"></path><path d="M43.35 370.21L43.35 370.21" stroke="#132e65" stroke-width="1.5"></path><path d="M43.35 370.21L57.98 488.03" stroke="#132e65" stroke-width="1.5"></path><path d="M43.35 370.21L212.6 384.67" stroke="#132e65" stroke-width="1.5"></path><path d="M43.35 370.21L209.97 553.41" stroke="#132e65" stroke-width="1.5"></path><path d="M57.98 488.03L57.98 488.03" stroke="#132e65" stroke-width="1.5"></path><path d="M64.21 688.77L64.21 688.77" stroke="#132e65" stroke-width="1.5"></path><path d="M64.21 688.77L209.97 553.41" stroke="#132e65" stroke-width="1.5"></path><path d="M212.6 384.67L212.6 384.67" stroke="#132e65" stroke-width="1.5"></path><path d="M212.6 384.67L349.59 406.12" stroke="#132e65" stroke-width="1.5"></path><path d="M212.6 384.67L209.97 553.41" stroke="#132e65" stroke-width="1.5"></path><path d="M212.6 384.67L57.98 488.03" stroke="#132e65" stroke-width="1.5"></path><path d="M212.6 384.67L351.34 537.48" stroke="#132e65" stroke-width="1.5"></path><path d="M212.6 384.67L-70.06 395.69" stroke="#132e65" stroke-width="1.5"></path><path d="M209.97 553.41L209.97 553.41" stroke="#132e65" stroke-width="1.5"></path><path d="M209.97 553.41L351.34 537.48" stroke="#132e65" stroke-width="1.5"></path><path d="M209.97 553.41L57.98 488.03" stroke="#132e65" stroke-width="1.5"></path><path d="M349.59 406.12L349.59 406.12" stroke="#132e65" stroke-width="1.5"></path><path d="M349.59 406.12L351.34 537.48" stroke="#132e65" stroke-width="1.5"></path><path d="M349.59 406.12L538.03 387.83" stroke="#132e65" stroke-width="1.5"></path><path d="M349.59 406.12L209.97 553.41" stroke="#132e65" stroke-width="1.5"></path><path d="M349.59 406.12L500.3 558.02" stroke="#132e65" stroke-width="1.5"></path><path d="M349.59 406.12L57.98 488.03" stroke="#132e65" stroke-width="1.5"></path><path d="M351.34 537.48L351.34 537.48" stroke="#132e65" stroke-width="1.5"></path><path d="M351.34 537.48L500.3 558.02" stroke="#132e65" stroke-width="1.5"></path><path d="M351.34 537.48L538.03 387.83" stroke="#132e65" stroke-width="1.5"></path><path d="M538.03 387.83L538.03 387.83" stroke="#132e65" stroke-width="1.5"></path><path d="M538.03 387.83L693.2 355" stroke="#132e65" stroke-width="1.5"></path><path d="M538.03 387.83L500.3 558.02" stroke="#132e65" stroke-width="1.5"></path><path d="M538.03 387.83L640.25 231.58" stroke="#132e65" stroke-width="1.5"></path><path d="M500.3 558.02L500.3 558.02" stroke="#132e65" stroke-width="1.5"></path><path d="M500.3 558.02L561.92 678.85" stroke="#132e65" stroke-width="1.5"></path><path d="M561.92 678.85L561.92 678.85" stroke="#132e65" stroke-width="1.5"></path><path d="M561.92 678.85L705.93 639.13" stroke="#132e65" stroke-width="1.5"></path><path d="M561.92 678.85L682 512.64" stroke="#132e65" stroke-width="1.5"></path><path d="M561.92 678.85L351.34 537.48" stroke="#132e65" stroke-width="1.5"></path><path d="M561.92 678.85L846.78 692.73" stroke="#132e65" stroke-width="1.5"></path><path d="M640.25 231.58L640.25 231.58" stroke="#132e65" stroke-width="1.5"></path><path d="M640.25 231.58L693.2 355" stroke="#132e65" stroke-width="1.5"></path><path d="M640.25 231.58L826.49 219.73" stroke="#132e65" stroke-width="1.5"></path><path d="M693.2 355L693.2 355" stroke="#132e65" stroke-width="1.5"></path><path d="M693.2 355L840.4 371.81" stroke="#132e65" stroke-width="1.5"></path><path d="M693.2 355L682 512.64" stroke="#132e65" stroke-width="1.5"></path><path d="M693.2 355L826.49 219.73" stroke="#132e65" stroke-width="1.5"></path><path d="M693.2 355L848.35 537.07" stroke="#132e65" stroke-width="1.5"></path><path d="M682 512.64L682 512.64" stroke="#132e65" stroke-width="1.5"></path><path d="M682 512.64L705.93 639.13" stroke="#132e65" stroke-width="1.5"></path><path d="M682 512.64L848.35 537.07" stroke="#132e65" stroke-width="1.5"></path><path d="M682 512.64L500.3 558.02" stroke="#132e65" stroke-width="1.5"></path><path d="M682 512.64L538.03 387.83" stroke="#132e65" stroke-width="1.5"></path><path d="M705.93 639.13L705.93 639.13" stroke="#132e65" stroke-width="1.5"></path><path d="M705.93 639.13L846.78 692.73" stroke="#132e65" stroke-width="1.5"></path><path d="M705.93 639.13L848.35 537.07" stroke="#132e65" stroke-width="1.5"></path><path d="M826.49 219.73L826.49 219.73" stroke="#132e65" stroke-width="1.5"></path><path d="M826.49 219.73L840.4 371.81" stroke="#132e65" stroke-width="1.5"></path><path d="M826.49 219.73L996.15 224.17" stroke="#132e65" stroke-width="1.5"></path><path d="M840.4 371.81L840.4 371.81" stroke="#132e65" stroke-width="1.5"></path><path d="M840.4 371.81L944.02 369" stroke="#132e65" stroke-width="1.5"></path><path d="M840.4 371.81L952.77 488.12" stroke="#132e65" stroke-width="1.5"></path><path d="M840.4 371.81L848.35 537.07" stroke="#132e65" stroke-width="1.5"></path><path d="M848.35 537.07L848.35 537.07" stroke="#132e65" stroke-width="1.5"></path><path d="M848.35 537.07L952.77 488.12" stroke="#132e65" stroke-width="1.5"></path><path d="M848.35 537.07L846.78 692.73" stroke="#132e65" stroke-width="1.5"></path><path d="M848.35 537.07L944.02 369" stroke="#132e65" stroke-width="1.5"></path><path d="M846.78 692.73L846.78 692.73" stroke="#132e65" stroke-width="1.5"></path><path d="M976.28 -54.11L976.28 -54.11" stroke="#132e65" stroke-width="1.5"></path><path d="M976.28 -54.11L978.83 88.07" stroke="#132e65" stroke-width="1.5"></path><path d="M976.28 -54.11L1138.76 104.7" stroke="#132e65" stroke-width="1.5"></path><path d="M976.28 -54.11L1240.38 -43.06" stroke="#132e65" stroke-width="1.5"></path><path d="M976.28 -54.11L996.15 224.17" stroke="#132e65" stroke-width="1.5"></path><path d="M976.28 -54.11L1244.64 47.08" stroke="#132e65" stroke-width="1.5"></path><path d="M976.28 -54.11L826.49 219.73" stroke="#132e65" stroke-width="1.5"></path><path d="M978.83 88.07L978.83 88.07" stroke="#132e65" stroke-width="1.5"></path><path d="M978.83 88.07L996.15 224.17" stroke="#132e65" stroke-width="1.5"></path><path d="M978.83 88.07L1138.76 104.7" stroke="#132e65" stroke-width="1.5"></path><path d="M978.83 88.07L826.49 219.73" stroke="#132e65" stroke-width="1.5"></path><path d="M978.83 88.07L1128.78 247.69" stroke="#132e65" stroke-width="1.5"></path><path d="M996.15 224.17L996.15 224.17" stroke="#132e65" stroke-width="1.5"></path><path d="M996.15 224.17L1128.78 247.69" stroke="#132e65" stroke-width="1.5"></path><path d="M996.15 224.17L944.02 369" stroke="#132e65" stroke-width="1.5"></path><path d="M944.02 369L944.02 369" stroke="#132e65" stroke-width="1.5"></path><path d="M952.77 488.12L952.77 488.12" stroke="#132e65" stroke-width="1.5"></path><path d="M952.77 488.12L944.02 369" stroke="#132e65" stroke-width="1.5"></path><path d="M952.77 488.12L1102.79 492.68" stroke="#132e65" stroke-width="1.5"></path><path d="M1001.03 701.1L1001.03 701.1" stroke="#132e65" stroke-width="1.5"></path><path d="M1001.03 701.1L1100.24 672.68" stroke="#132e65" stroke-width="1.5"></path><path d="M1001.03 701.1L846.78 692.73" stroke="#132e65" stroke-width="1.5"></path><path d="M1001.03 701.1L952.77 488.12" stroke="#132e65" stroke-width="1.5"></path><path d="M1001.03 701.1L848.35 537.07" stroke="#132e65" stroke-width="1.5"></path><path d="M1001.03 701.1L1102.79 492.68" stroke="#132e65" stroke-width="1.5"></path><path d="M1001.03 701.1L1256.8 648.35" stroke="#132e65" stroke-width="1.5"></path><path d="M1138.76 104.7L1138.76 104.7" stroke="#132e65" stroke-width="1.5"></path><path d="M1138.76 104.7L1244.64 47.08" stroke="#132e65" stroke-width="1.5"></path><path d="M1138.76 104.7L1128.78 247.69" stroke="#132e65" stroke-width="1.5"></path><path d="M1128.78 247.69L1128.78 247.69" stroke="#132e65" stroke-width="1.5"></path><path d="M1128.78 247.69L1138.48 377.54" stroke="#132e65" stroke-width="1.5"></path><path d="M1128.78 247.69L1290.6 222.8" stroke="#132e65" stroke-width="1.5"></path><path d="M1128.78 247.69L1273.39 347.51" stroke="#132e65" stroke-width="1.5"></path><path d="M1138.48 377.54L1138.48 377.54" stroke="#132e65" stroke-width="1.5"></path><path d="M1138.48 377.54L1102.79 492.68" stroke="#132e65" stroke-width="1.5"></path><path d="M1138.48 377.54L1273.39 347.51" stroke="#132e65" stroke-width="1.5"></path><path d="M1138.48 377.54L944.02 369" stroke="#132e65" stroke-width="1.5"></path><path d="M1138.48 377.54L996.15 224.17" stroke="#132e65" stroke-width="1.5"></path><path d="M1102.79 492.68L1102.79 492.68" stroke="#132e65" stroke-width="1.5"></path><path d="M1102.79 492.68L1100.24 672.68" stroke="#132e65" stroke-width="1.5"></path><path d="M1100.24 672.68L1100.24 672.68" stroke="#132e65" stroke-width="1.5"></path><path d="M1100.24 672.68L1256.8 648.35" stroke="#132e65" stroke-width="1.5"></path><path d="M1100.24 672.68L952.77 488.12" stroke="#132e65" stroke-width="1.5"></path><path d="M1100.24 672.68L846.78 692.73" stroke="#132e65" stroke-width="1.5"></path><path d="M1100.24 672.68L1302.25 508.52" stroke="#132e65" stroke-width="1.5"></path><path d="M1240.38 -43.06L1240.38 -43.06" stroke="#132e65" stroke-width="1.5"></path><path d="M1240.38 -43.06L1244.64 47.08" stroke="#132e65" stroke-width="1.5"></path><path d="M1244.64 47.08L1244.64 47.08" stroke="#132e65" stroke-width="1.5"></path><path d="M1244.64 47.08L1399.01 60.7" stroke="#132e65" stroke-width="1.5"></path><path d="M1244.64 47.08L1290.6 222.8" stroke="#132e65" stroke-width="1.5"></path><path d="M1244.64 47.08L1435.59 -54.87" stroke="#132e65" stroke-width="1.5"></path><path d="M1290.6 222.8L1290.6 222.8" stroke="#132e65" stroke-width="1.5"></path><path d="M1290.6 222.8L1273.39 347.51" stroke="#132e65" stroke-width="1.5"></path><path d="M1290.6 222.8L1418.67 215.38" stroke="#132e65" stroke-width="1.5"></path><path d="M1273.39 347.51L1273.39 347.51" stroke="#132e65" stroke-width="1.5"></path><path d="M1302.25 508.52L1302.25 508.52" stroke="#132e65" stroke-width="1.5"></path><path d="M1302.25 508.52L1400.1 524.41" stroke="#132e65" stroke-width="1.5"></path><path d="M1302.25 508.52L1256.8 648.35" stroke="#132e65" stroke-width="1.5"></path><path d="M1256.8 648.35L1256.8 648.35" stroke="#132e65" stroke-width="1.5"></path><path d="M1256.8 648.35L1395.13 649.51" stroke="#132e65" stroke-width="1.5"></path><path d="M1435.59 -54.87L1435.59 -54.87" stroke="#132e65" stroke-width="1.5"></path><path d="M1435.59 -54.87L1399.01 60.7" stroke="#132e65" stroke-width="1.5"></path><path d="M1435.59 -54.87L1558.51 -43.56" stroke="#132e65" stroke-width="1.5"></path><path d="M1435.59 -54.87L1240.38 -43.06" stroke="#132e65" stroke-width="1.5"></path><path d="M1435.59 -54.87L1562.78 104.57" stroke="#132e65" stroke-width="1.5"></path><path d="M1435.59 -54.87L1418.67 215.38" stroke="#132e65" stroke-width="1.5"></path><path d="M1399.01 60.7L1399.01 60.7" stroke="#132e65" stroke-width="1.5"></path><path d="M1399.01 60.7L1418.67 215.38" stroke="#132e65" stroke-width="1.5"></path><path d="M1418.67 215.38L1418.67 215.38" stroke="#132e65" stroke-width="1.5"></path><path d="M1418.67 215.38L1450.25 365.59" stroke="#132e65" stroke-width="1.5"></path><path d="M1418.67 215.38L1562.78 104.57" stroke="#132e65" stroke-width="1.5"></path><path d="M1418.67 215.38L1608.34 195.98" stroke="#132e65" stroke-width="1.5"></path><path d="M1450.25 365.59L1450.25 365.59" stroke="#132e65" stroke-width="1.5"></path><path d="M1450.25 365.59L1400.1 524.41" stroke="#132e65" stroke-width="1.5"></path><path d="M1400.1 524.41L1400.1 524.41" stroke="#132e65" stroke-width="1.5"></path><path d="M1400.1 524.41L1395.13 649.51" stroke="#132e65" stroke-width="1.5"></path><path d="M1395.13 649.51L1395.13 649.51" stroke="#132e65" stroke-width="1.5"></path><path d="M1395.13 649.51L1302.25 508.52" stroke="#132e65" stroke-width="1.5"></path><path d="M1395.13 649.51L1583.65 559.18" stroke="#132e65" stroke-width="1.5"></path><path d="M1395.13 649.51L1450.25 365.59" stroke="#132e65" stroke-width="1.5"></path><path d="M1558.51 -43.56L1558.51 -43.56" stroke="#132e65" stroke-width="1.5"></path><path d="M1558.51 -43.56L1562.78 104.57" stroke="#132e65" stroke-width="1.5"></path><path d="M1558.51 -43.56L1399.01 60.7" stroke="#132e65" stroke-width="1.5"></path><path d="M1558.51 -43.56L1608.34 195.98" stroke="#132e65" stroke-width="1.5"></path><path d="M1558.51 -43.56L1418.67 215.38" stroke="#132e65" stroke-width="1.5"></path><path d="M1562.78 104.57L1562.78 104.57" stroke="#132e65" stroke-width="1.5"></path><path d="M1562.78 104.57L1608.34 195.98" stroke="#132e65" stroke-width="1.5"></path><path d="M1562.78 104.57L1399.01 60.7" stroke="#132e65" stroke-width="1.5"></path><path d="M1608.34 195.98L1608.34 195.98" stroke="#132e65" stroke-width="1.5"></path><path d="M1583.65 559.18L1583.65 559.18" stroke="#132e65" stroke-width="1.5"></path><path d="M1583.65 559.18L1400.1 524.41" stroke="#132e65" stroke-width="1.5"></path><circle r="5" cx="-70.06" cy="395.69" fill="#132e65"></circle><circle r="5" cx="-49.68" cy="522.78" fill="#132e65"></circle><circle r="5" cx="-62.6" cy="663.5" fill="#132e65"></circle><circle r="5" cx="43.35" cy="370.21" fill="#132e65"></circle><circle r="5" cx="57.98" cy="488.03" fill="#132e65"></circle><circle r="5" cx="64.21" cy="688.77" fill="#132e65"></circle><circle r="5" cx="212.6" cy="384.67" fill="#132e65"></circle><circle r="5" cx="209.97" cy="553.41" fill="#132e65"></circle><circle r="5" cx="349.59" cy="406.12" fill="#132e65"></circle><circle r="5" cx="351.34" cy="537.48" fill="#132e65"></circle><circle r="5" cx="538.03" cy="387.83" fill="#132e65"></circle><circle r="5" cx="500.3" cy="558.02" fill="#132e65"></circle><circle r="5" cx="561.92" cy="678.85" fill="#132e65"></circle><circle r="5" cx="640.25" cy="231.58" fill="#132e65"></circle><circle r="5" cx="693.2" cy="355" fill="#132e65"></circle><circle r="5" cx="682" cy="512.64" fill="#132e65"></circle><circle r="5" cx="705.93" cy="639.13" fill="#132e65"></circle><circle r="5" cx="826.49" cy="219.73" fill="#132e65"></circle><circle r="5" cx="840.4" cy="371.81" fill="#132e65"></circle><circle r="5" cx="848.35" cy="537.07" fill="#132e65"></circle><circle r="5" cx="846.78" cy="692.73" fill="#132e65"></circle><circle r="5" cx="976.28" cy="-54.11" fill="#132e65"></circle><circle r="5" cx="978.83" cy="88.07" fill="#132e65"></circle><circle r="5" cx="996.15" cy="224.17" fill="#132e65"></circle><circle r="5" cx="944.02" cy="369" fill="#132e65"></circle><circle r="5" cx="952.77" cy="488.12" fill="#132e65"></circle><circle r="5" cx="1001.03" cy="701.1" fill="#132e65"></circle><circle r="5" cx="1138.76" cy="104.7" fill="#132e65"></circle><circle r="5" cx="1128.78" cy="247.69" fill="#132e65"></circle><circle r="5" cx="1138.48" cy="377.54" fill="#132e65"></circle><circle r="5" cx="1102.79" cy="492.68" fill="#132e65"></circle><circle r="5" cx="1100.24" cy="672.68" fill="#132e65"></circle><circle r="5" cx="1240.38" cy="-43.06" fill="#132e65"></circle><circle r="5" cx="1244.64" cy="47.08" fill="#132e65"></circle><circle r="5" cx="1290.6" cy="222.8" fill="#132e65"></circle><circle r="5" cx="1273.39" cy="347.51" fill="#132e65"></circle><circle r="5" cx="1302.25" cy="508.52" fill="#132e65"></circle><circle r="5" cx="1256.8" cy="648.35" fill="#132e65"></circle><circle r="5" cx="1435.59" cy="-54.87" fill="#132e65"></circle><circle r="5" cx="1399.01" cy="60.7" fill="#132e65"></circle><circle r="5" cx="1418.67" cy="215.38" fill="#132e65"></circle><circle r="5" cx="1450.25" cy="365.59" fill="#132e65"></circle><circle r="5" cx="1400.1" cy="524.41" fill="#132e65"></circle><circle r="5" cx="1395.13" cy="649.51" fill="#132e65"></circle><circle r="5" cx="1558.51" cy="-43.56" fill="#132e65"></circle><circle r="5" cx="1562.78" cy="104.57" fill="#132e65"></circle><circle r="5" cx="1608.34" cy="195.98" fill="#132e65"></circle><circle r="5" cx="1583.65" cy="559.18" fill="#132e65"></circle><path d="M396.06 554.18L396.06 554.18" stroke="hsl(228.5, 77.2%, 51.5%)" stroke-width="1.5"></path><path d="M396.06 554.18L501.54 533.64" stroke="hsl(228.5, 77.2%, 51.5%)" stroke-width="1.5"></path><path d="M396.06 554.18L373.48 688.91" stroke="hsl(228.5, 77.2%, 51.5%)" stroke-width="1.5"></path><path d="M396.06 554.18L228.7 653.42" stroke="hsl(228.5, 77.2%, 51.5%)" stroke-width="1.5"></path><path d="M396.06 554.18L196.59 505.07" stroke="hsl(228.5, 77.2%, 51.5%)" stroke-width="1.5"></path><path d="M980.82 239.5L980.82 239.5" stroke="hsl(228.5, 77.2%, 51.5%)" stroke-width="1.5"></path><path d="M980.82 239.5L1101.91 259.88" stroke="hsl(228.5, 77.2%, 51.5%)" stroke-width="1.5"></path><path d="M980.82 239.5L997.47 362.52" stroke="hsl(228.5, 77.2%, 51.5%)" stroke-width="1.5"></path><path d="M980.82 239.5L861.87 343.66" stroke="hsl(228.5, 77.2%, 51.5%)" stroke-width="1.5"></path><path d="M980.82 239.5L1140.38 372.15" stroke="hsl(228.5, 77.2%, 51.5%)" stroke-width="1.5"></path><path d="M980.82 239.5L971.21 509.52" stroke="hsl(228.5, 77.2%, 51.5%)" stroke-width="1.5"></path><path d="M980.82 239.5L1132 488.44" stroke="hsl(228.5, 77.2%, 51.5%)" stroke-width="1.5"></path><path d="M1284.46 -104.69L1284.46 -104.69" stroke="hsl(228.5, 77.2%, 51.5%)" stroke-width="1.5"></path><path d="M1284.46 -104.69L1410.25 -106.22" stroke="hsl(228.5, 77.2%, 51.5%)" stroke-width="1.5"></path><path d="M1284.46 -104.69L1269.03 54.23" stroke="hsl(228.5, 77.2%, 51.5%)" stroke-width="1.5"></path><path d="M1576.52 206.53L1576.52 206.53" stroke="hsl(228.5, 77.2%, 51.5%)" stroke-width="1.5"></path><path d="M1576.52 206.53L1564.63 58.31" stroke="hsl(228.5, 77.2%, 51.5%)" stroke-width="1.5"></path><path d="M1576.52 206.53L1549.4 361.78" stroke="hsl(228.5, 77.2%, 51.5%)" stroke-width="1.5"></path><path d="M1576.52 206.53L1411.3 193.72" stroke="hsl(228.5, 77.2%, 51.5%)" stroke-width="1.5"></path><path d="M1576.52 206.53L1392.75 57.76" stroke="hsl(228.5, 77.2%, 51.5%)" stroke-width="1.5"></path><path d="M1576.52 206.53L1397.57 372.2" stroke="hsl(228.5, 77.2%, 51.5%)" stroke-width="1.5"></path><path d="M1576.52 206.53L1589.52 -66.99" stroke="hsl(228.5, 77.2%, 51.5%)" stroke-width="1.5"></path><path d="M-76.03 538.64L-76.03 538.64" stroke="hsl(228.5, 77.2%, 51.5%)" stroke-width="1.5"></path><path d="M-76.03 538.64L83.89 531.74" stroke="hsl(228.5, 77.2%, 51.5%)" stroke-width="1.5"></path><path d="M-76.03 538.64L-52.76 700.62" stroke="hsl(228.5, 77.2%, 51.5%)" stroke-width="1.5"></path><path d="M-76.03 538.64L62.56 686.68" stroke="hsl(228.5, 77.2%, 51.5%)" stroke-width="1.5"></path><path d="M-52.76 700.62L-52.76 700.62" stroke="hsl(228.5, 77.2%, 51.5%)" stroke-width="1.5"></path><path d="M-52.76 700.62L62.56 686.68" stroke="hsl(228.5, 77.2%, 51.5%)" stroke-width="1.5"></path><path d="M83.89 531.74L83.89 531.74" stroke="hsl(228.5, 77.2%, 51.5%)" stroke-width="1.5"></path><path d="M83.89 531.74L196.59 505.07" stroke="hsl(228.5, 77.2%, 51.5%)" stroke-width="1.5"></path><path d="M83.89 531.74L62.56 686.68" stroke="hsl(228.5, 77.2%, 51.5%)" stroke-width="1.5"></path><path d="M62.56 686.68L62.56 686.68" stroke="hsl(228.5, 77.2%, 51.5%)" stroke-width="1.5"></path><path d="M62.56 686.68L228.7 653.42" stroke="hsl(228.5, 77.2%, 51.5%)" stroke-width="1.5"></path><path d="M196.59 505.07L196.59 505.07" stroke="hsl(228.5, 77.2%, 51.5%)" stroke-width="1.5"></path><path d="M196.59 505.07L228.7 653.42" stroke="hsl(228.5, 77.2%, 51.5%)" stroke-width="1.5"></path><path d="M228.7 653.42L228.7 653.42" stroke="hsl(228.5, 77.2%, 51.5%)" stroke-width="1.5"></path><path d="M228.7 653.42L373.48 688.91" stroke="hsl(228.5, 77.2%, 51.5%)" stroke-width="1.5"></path><path d="M228.7 653.42L83.89 531.74" stroke="hsl(228.5, 77.2%, 51.5%)" stroke-width="1.5"></path><path d="M373.48 688.91L373.48 688.91" stroke="hsl(228.5, 77.2%, 51.5%)" stroke-width="1.5"></path><path d="M373.48 688.91L501.54 533.64" stroke="hsl(228.5, 77.2%, 51.5%)" stroke-width="1.5"></path><path d="M501.54 533.64L501.54 533.64" stroke="hsl(228.5, 77.2%, 51.5%)" stroke-width="1.5"></path><path d="M501.54 533.64L670.41 526.2" stroke="hsl(228.5, 77.2%, 51.5%)" stroke-width="1.5"></path><path d="M501.54 533.64L645.26 670.12" stroke="hsl(228.5, 77.2%, 51.5%)" stroke-width="1.5"></path><path d="M651.06 379.57L651.06 379.57" stroke="hsl(228.5, 77.2%, 51.5%)" stroke-width="1.5"></path><path d="M651.06 379.57L670.41 526.2" stroke="hsl(228.5, 77.2%, 51.5%)" stroke-width="1.5"></path><path d="M651.06 379.57L861.87 343.66" stroke="hsl(228.5, 77.2%, 51.5%)" stroke-width="1.5"></path><path d="M651.06 379.57L501.54 533.64" stroke="hsl(228.5, 77.2%, 51.5%)" stroke-width="1.5"></path><path d="M651.06 379.57L858.23 556.82" stroke="hsl(228.5, 77.2%, 51.5%)" stroke-width="1.5"></path><path d="M670.41 526.2L670.41 526.2" stroke="hsl(228.5, 77.2%, 51.5%)" stroke-width="1.5"></path><path d="M670.41 526.2L645.26 670.12" stroke="hsl(228.5, 77.2%, 51.5%)" stroke-width="1.5"></path><path d="M645.26 670.12L645.26 670.12" stroke="hsl(228.5, 77.2%, 51.5%)" stroke-width="1.5"></path><path d="M645.26 670.12L802.66 667.28" stroke="hsl(228.5, 77.2%, 51.5%)" stroke-width="1.5"></path><path d="M645.26 670.12L858.23 556.82" stroke="hsl(228.5, 77.2%, 51.5%)" stroke-width="1.5"></path><path d="M645.26 670.12L373.48 688.91" stroke="hsl(228.5, 77.2%, 51.5%)" stroke-width="1.5"></path><path d="M861.87 343.66L861.87 343.66" stroke="hsl(228.5, 77.2%, 51.5%)" stroke-width="1.5"></path><path d="M861.87 343.66L997.47 362.52" stroke="hsl(228.5, 77.2%, 51.5%)" stroke-width="1.5"></path><path d="M861.87 343.66L971.21 509.52" stroke="hsl(228.5, 77.2%, 51.5%)" stroke-width="1.5"></path><path d="M861.87 343.66L858.23 556.82" stroke="hsl(228.5, 77.2%, 51.5%)" stroke-width="1.5"></path><path d="M861.87 343.66L1101.91 259.88" stroke="hsl(228.5, 77.2%, 51.5%)" stroke-width="1.5"></path><path d="M858.23 556.82L858.23 556.82" stroke="hsl(228.5, 77.2%, 51.5%)" stroke-width="1.5"></path><path d="M858.23 556.82L971.21 509.52" stroke="hsl(228.5, 77.2%, 51.5%)" stroke-width="1.5"></path><path d="M858.23 556.82L802.66 667.28" stroke="hsl(228.5, 77.2%, 51.5%)" stroke-width="1.5"></path><path d="M858.23 556.82L988.93 674.7" stroke="hsl(228.5, 77.2%, 51.5%)" stroke-width="1.5"></path><path d="M858.23 556.82L670.41 526.2" stroke="hsl(228.5, 77.2%, 51.5%)" stroke-width="1.5"></path><path d="M858.23 556.82L997.47 362.52" stroke="hsl(228.5, 77.2%, 51.5%)" stroke-width="1.5"></path><path d="M802.66 667.28L802.66 667.28" stroke="hsl(228.5, 77.2%, 51.5%)" stroke-width="1.5"></path><path d="M997.47 362.52L997.47 362.52" stroke="hsl(228.5, 77.2%, 51.5%)" stroke-width="1.5"></path><path d="M997.47 362.52L1140.38 372.15" stroke="hsl(228.5, 77.2%, 51.5%)" stroke-width="1.5"></path><path d="M971.21 509.52L971.21 509.52" stroke="hsl(228.5, 77.2%, 51.5%)" stroke-width="1.5"></path><path d="M971.21 509.52L997.47 362.52" stroke="hsl(228.5, 77.2%, 51.5%)" stroke-width="1.5"></path><path d="M988.93 674.7L988.93 674.7" stroke="hsl(228.5, 77.2%, 51.5%)" stroke-width="1.5"></path><path d="M988.93 674.7L1124.33 676.44" stroke="hsl(228.5, 77.2%, 51.5%)" stroke-width="1.5"></path><path d="M988.93 674.7L971.21 509.52" stroke="hsl(228.5, 77.2%, 51.5%)" stroke-width="1.5"></path><path d="M988.93 674.7L802.66 667.28" stroke="hsl(228.5, 77.2%, 51.5%)" stroke-width="1.5"></path><path d="M988.93 674.7L1132 488.44" stroke="hsl(228.5, 77.2%, 51.5%)" stroke-width="1.5"></path><path d="M988.93 674.7L1253.83 657.59" stroke="hsl(228.5, 77.2%, 51.5%)" stroke-width="1.5"></path><path d="M1101.91 259.88L1101.91 259.88" stroke="hsl(228.5, 77.2%, 51.5%)" stroke-width="1.5"></path><path d="M1101.91 259.88L1140.38 372.15" stroke="hsl(228.5, 77.2%, 51.5%)" stroke-width="1.5"></path><path d="M1140.38 372.15L1140.38 372.15" stroke="hsl(228.5, 77.2%, 51.5%)" stroke-width="1.5"></path><path d="M1140.38 372.15L1132 488.44" stroke="hsl(228.5, 77.2%, 51.5%)" stroke-width="1.5"></path><path d="M1140.38 372.15L971.21 509.52" stroke="hsl(228.5, 77.2%, 51.5%)" stroke-width="1.5"></path><path d="M1140.38 372.15L1276.17 547.63" stroke="hsl(228.5, 77.2%, 51.5%)" stroke-width="1.5"></path><path d="M1132 488.44L1132 488.44" stroke="hsl(228.5, 77.2%, 51.5%)" stroke-width="1.5"></path><path d="M1124.33 676.44L1124.33 676.44" stroke="hsl(228.5, 77.2%, 51.5%)" stroke-width="1.5"></path><path d="M1124.33 676.44L1253.83 657.59" stroke="hsl(228.5, 77.2%, 51.5%)" stroke-width="1.5"></path><path d="M1124.33 676.44L1132 488.44" stroke="hsl(228.5, 77.2%, 51.5%)" stroke-width="1.5"></path><path d="M1124.33 676.44L1276.17 547.63" stroke="hsl(228.5, 77.2%, 51.5%)" stroke-width="1.5"></path><path d="M1124.33 676.44L971.21 509.52" stroke="hsl(228.5, 77.2%, 51.5%)" stroke-width="1.5"></path><path d="M1269.03 54.23L1269.03 54.23" stroke="hsl(228.5, 77.2%, 51.5%)" stroke-width="1.5"></path><path d="M1269.03 54.23L1392.75 57.76" stroke="hsl(228.5, 77.2%, 51.5%)" stroke-width="1.5"></path><path d="M1269.03 54.23L1411.3 193.72" stroke="hsl(228.5, 77.2%, 51.5%)" stroke-width="1.5"></path><path d="M1269.03 54.23L1410.25 -106.22" stroke="hsl(228.5, 77.2%, 51.5%)" stroke-width="1.5"></path><path d="M1276.17 547.63L1276.17 547.63" stroke="hsl(228.5, 77.2%, 51.5%)" stroke-width="1.5"></path><path d="M1276.17 547.63L1253.83 657.59" stroke="hsl(228.5, 77.2%, 51.5%)" stroke-width="1.5"></path><path d="M1276.17 547.63L1132 488.44" stroke="hsl(228.5, 77.2%, 51.5%)" stroke-width="1.5"></path><path d="M1276.17 547.63L1433.44 528.26" stroke="hsl(228.5, 77.2%, 51.5%)" stroke-width="1.5"></path><path d="M1253.83 657.59L1253.83 657.59" stroke="hsl(228.5, 77.2%, 51.5%)" stroke-width="1.5"></path><path d="M1410.25 -106.22L1410.25 -106.22" stroke="hsl(228.5, 77.2%, 51.5%)" stroke-width="1.5"></path><path d="M1410.25 -106.22L1392.75 57.76" stroke="hsl(228.5, 77.2%, 51.5%)" stroke-width="1.5"></path><path d="M1410.25 -106.22L1589.52 -66.99" stroke="hsl(228.5, 77.2%, 51.5%)" stroke-width="1.5"></path><path d="M1410.25 -106.22L1564.63 58.31" stroke="hsl(228.5, 77.2%, 51.5%)" stroke-width="1.5"></path><path d="M1392.75 57.76L1392.75 57.76" stroke="hsl(228.5, 77.2%, 51.5%)" stroke-width="1.5"></path><path d="M1392.75 57.76L1411.3 193.72" stroke="hsl(228.5, 77.2%, 51.5%)" stroke-width="1.5"></path><path d="M1392.75 57.76L1564.63 58.31" stroke="hsl(228.5, 77.2%, 51.5%)" stroke-width="1.5"></path><path d="M1392.75 57.76L1284.46 -104.69" stroke="hsl(228.5, 77.2%, 51.5%)" stroke-width="1.5"></path><path d="M1411.3 193.72L1411.3 193.72" stroke="hsl(228.5, 77.2%, 51.5%)" stroke-width="1.5"></path><path d="M1411.3 193.72L1397.57 372.2" stroke="hsl(228.5, 77.2%, 51.5%)" stroke-width="1.5"></path><path d="M1411.3 193.72L1564.63 58.31" stroke="hsl(228.5, 77.2%, 51.5%)" stroke-width="1.5"></path><path d="M1411.3 193.72L1549.4 361.78" stroke="hsl(228.5, 77.2%, 51.5%)" stroke-width="1.5"></path><path d="M1397.57 372.2L1397.57 372.2" stroke="hsl(228.5, 77.2%, 51.5%)" stroke-width="1.5"></path><path d="M1397.57 372.2L1549.4 361.78" stroke="hsl(228.5, 77.2%, 51.5%)" stroke-width="1.5"></path><path d="M1433.44 528.26L1433.44 528.26" stroke="hsl(228.5, 77.2%, 51.5%)" stroke-width="1.5"></path><path d="M1433.44 528.26L1577.02 525.39" stroke="hsl(228.5, 77.2%, 51.5%)" stroke-width="1.5"></path><path d="M1433.44 528.26L1397.57 372.2" stroke="hsl(228.5, 77.2%, 51.5%)" stroke-width="1.5"></path><path d="M1433.44 528.26L1437.17 697.3" stroke="hsl(228.5, 77.2%, 51.5%)" stroke-width="1.5"></path><path d="M1437.17 697.3L1437.17 697.3" stroke="hsl(228.5, 77.2%, 51.5%)" stroke-width="1.5"></path><path d="M1437.17 697.3L1540.29 669.66" stroke="hsl(228.5, 77.2%, 51.5%)" stroke-width="1.5"></path><path d="M1437.17 697.3L1253.83 657.59" stroke="hsl(228.5, 77.2%, 51.5%)" stroke-width="1.5"></path><path d="M1437.17 697.3L1276.17 547.63" stroke="hsl(228.5, 77.2%, 51.5%)" stroke-width="1.5"></path><path d="M1437.17 697.3L1577.02 525.39" stroke="hsl(228.5, 77.2%, 51.5%)" stroke-width="1.5"></path><path d="M1437.17 697.3L1124.33 676.44" stroke="hsl(228.5, 77.2%, 51.5%)" stroke-width="1.5"></path><path d="M1589.52 -66.99L1589.52 -66.99" stroke="hsl(228.5, 77.2%, 51.5%)" stroke-width="1.5"></path><path d="M1589.52 -66.99L1564.63 58.31" stroke="hsl(228.5, 77.2%, 51.5%)" stroke-width="1.5"></path><path d="M1589.52 -66.99L1392.75 57.76" stroke="hsl(228.5, 77.2%, 51.5%)" stroke-width="1.5"></path><path d="M1564.63 58.31L1564.63 58.31" stroke="hsl(228.5, 77.2%, 51.5%)" stroke-width="1.5"></path><path d="M1549.4 361.78L1549.4 361.78" stroke="hsl(228.5, 77.2%, 51.5%)" stroke-width="1.5"></path><path d="M1549.4 361.78L1577.02 525.39" stroke="hsl(228.5, 77.2%, 51.5%)" stroke-width="1.5"></path><path d="M1549.4 361.78L1433.44 528.26" stroke="hsl(228.5, 77.2%, 51.5%)" stroke-width="1.5"></path><path d="M1577.02 525.39L1577.02 525.39" stroke="hsl(228.5, 77.2%, 51.5%)" stroke-width="1.5"></path><path d="M1577.02 525.39L1540.29 669.66" stroke="hsl(228.5, 77.2%, 51.5%)" stroke-width="1.5"></path><path d="M1540.29 669.66L1540.29 669.66" stroke="hsl(228.5, 77.2%, 51.5%)" stroke-width="1.5"></path><circle r="25" cx="396.06" cy="554.18" fill="url(&quot;#SvgjsRadialGradient1043&quot;)"></circle><circle r="25" cx="980.82" cy="239.5" fill="url(&quot;#SvgjsRadialGradient1043&quot;)"></circle><circle r="25" cx="1284.46" cy="-104.69" fill="url(&quot;#SvgjsRadialGradient1043&quot;)"></circle><circle r="25" cx="1576.52" cy="206.53" fill="url(&quot;#SvgjsRadialGradient1043&quot;)"></circle><circle r="5" cx="-76.03" cy="538.64" fill="#8b9ad9"></circle><circle r="5" cx="-52.76" cy="700.62" fill="#8b9ad9"></circle><circle r="5" cx="83.89" cy="531.74" fill="#8b9ad9"></circle><circle r="5" cx="62.56" cy="686.68" fill="#8b9ad9"></circle><circle r="5" cx="196.59" cy="505.07" fill="#8b9ad9"></circle><circle r="5" cx="228.7" cy="653.42" fill="#8b9ad9"></circle><circle r="5" cx="373.48" cy="688.91" fill="#8b9ad9"></circle><circle r="5" cx="501.54" cy="533.64" fill="#8b9ad9"></circle><circle r="5" cx="651.06" cy="379.57" fill="#8b9ad9"></circle><circle r="5" cx="670.41" cy="526.2" fill="#8b9ad9"></circle><circle r="5" cx="645.26" cy="670.12" fill="#8b9ad9"></circle><circle r="5" cx="861.87" cy="343.66" fill="#8b9ad9"></circle><circle r="5" cx="858.23" cy="556.82" fill="#8b9ad9"></circle><circle r="5" cx="802.66" cy="667.28" fill="#8b9ad9"></circle><circle r="5" cx="997.47" cy="362.52" fill="#8b9ad9"></circle><circle r="5" cx="971.21" cy="509.52" fill="#8b9ad9"></circle><circle r="5" cx="988.93" cy="674.7" fill="#8b9ad9"></circle><circle r="5" cx="1101.91" cy="259.88" fill="#8b9ad9"></circle><circle r="5" cx="1140.38" cy="372.15" fill="#8b9ad9"></circle><circle r="5" cx="1132" cy="488.44" fill="#8b9ad9"></circle><circle r="5" cx="1124.33" cy="676.44" fill="#8b9ad9"></circle><circle r="5" cx="1269.03" cy="54.23" fill="#8b9ad9"></circle><circle r="5" cx="1276.17" cy="547.63" fill="#8b9ad9"></circle><circle r="5" cx="1253.83" cy="657.59" fill="#8b9ad9"></circle><circle r="5" cx="1410.25" cy="-106.22" fill="#8b9ad9"></circle><circle r="5" cx="1392.75" cy="57.76" fill="#8b9ad9"></circle><circle r="5" cx="1411.3" cy="193.72" fill="#8b9ad9"></circle><circle r="5" cx="1397.57" cy="372.2" fill="#8b9ad9"></circle><circle r="5" cx="1433.44" cy="528.26" fill="#8b9ad9"></circle><circle r="5" cx="1437.17" cy="697.3" fill="#8b9ad9"></circle><circle r="5" cx="1589.52" cy="-66.99" fill="#8b9ad9"></circle><circle r="5" cx="1564.63" cy="58.31" fill="#8b9ad9"></circle><circle r="5" cx="1549.4" cy="361.78" fill="#8b9ad9"></circle><circle r="5" cx="1577.02" cy="525.39" fill="#8b9ad9"></circle><circle r="5" cx="1540.29" cy="669.66" fill="#8b9ad9"></circle></g><defs><mask id="SvgjsMask1041"><rect width="1440" height="560" fill="#ffffff"></rect></mask><linearGradient x1="15.28%" y1="-39.29%" x2="84.72%" y2="139.29%" gradientUnits="userSpaceOnUse" id="SvgjsLinearGradient1042"><stop stop-color="#0e2a47" offset="0"></stop><stop stop-color="#00459e" offset="1"></stop></linearGradient><radialGradient id="SvgjsRadialGradient1043"><stop stop-color="#ffffff" offset="0.1"></stop><stop stop-color="#1735b3" offset="0.2"></stop><stop stop-color="rgba(23, 53, 179, 0)" offset="1"></stop></radialGradient></defs></svg>